<svg width="35" height="35" viewBox="0 0 48 44" fill="none" xmlns="http://www.w3.org/2000/svg">
<path d="M5 37.5839C5 32.6678 9.10714 28.6825 17.5 28.6825C25.8929 28.6825 30 32.6678 30 37.5839C30 38.366 29.4294 39 28.7255 39H6.27451C5.57062 39 5 38.366 5 37.5839Z" stroke="#F0F0F0" stroke-opacity="0.8" stroke-width="2"/>
<path d="M22.1875 19.6875C22.1875 22.2763 20.0888 24.375 17.5 24.375C14.9112 24.375 12.8125 22.2763 12.8125 19.6875C12.8125 17.0987 14.9112 15 17.5 15C20.0888 15 22.1875 17.0987 22.1875 19.6875Z" stroke="#F0F0F0" stroke-opacity="0.8" stroke-width="2"/>
<circle cx="36" cy="12" r="11.25" fill="#E54444" stroke="#F0F0F0" stroke-width="1.5"/>
<path d="M37.0625 18H35.6406V8.15625H35.5781L32.8281 9.98438V8.5625L35.6406 6.6875H37.0625V18Z" fill="#F0F0F0"/>
</svg>
