<svg width="20" height="20" viewBox="0 0 20 20" fill="none" xmlns="http://www.w3.org/2000/svg">
<path d="M3.8122 17.9988C3.87652 18.0066 3.94155 18.0066 4.00587 17.9988L7.23375 17.1918C7.37694 17.1578 7.5081 17.0852 7.61303 16.982L17.5307 7.03208C17.8313 6.72969 18 6.32063 18 5.89425C18 5.46788 17.8313 5.05882 17.5307 4.75643L16.2557 3.47335C16.1058 3.32329 15.9278 3.20425 15.7318 3.12303C15.5359 3.04181 15.3259 3 15.1138 3C14.9017 3 14.6917 3.04181 14.4958 3.12303C14.2998 3.20425 14.1218 3.32329 13.9719 3.47335L4.05429 13.391C3.95002 13.4964 3.87494 13.6271 3.83641 13.7703L3.02944 16.9982C3.00044 17.1026 2.99276 17.2118 3.00687 17.3192C3.02098 17.4266 3.05658 17.5301 3.11156 17.6235C3.16654 17.7169 3.23976 17.7983 3.32686 17.8627C3.41396 17.9272 3.51316 17.9735 3.61853 17.9988C3.68285 18.0066 3.74788 18.0066 3.8122 17.9988ZM15.1098 4.61117L16.3929 5.89425L15.1098 7.17734L13.8348 5.89425L15.1098 4.61117ZM5.35351 14.3755L12.6889 7.03208L13.9719 8.31516L6.62852 15.6586L4.92582 16.0782L5.35351 14.3755Z" fill="#CDCDCD"/>
</svg>
