<svg width="28" height="28" viewBox="0 0 28 28" fill="none" xmlns="http://www.w3.org/2000/svg">
<path d="M14 0C6.28048 0 0 6.13443 0 13.6744C0 21.2144 6.28048 27.3488 14 27.3488C21.7195 27.3488 28 21.2144 28 13.6744C28 6.13443 21.7195 0 14 0ZM19.0272 16.621C18.3959 17.3731 17.2503 18.5755 14.6051 20.3295C14.4267 20.4488 14.2155 20.5127 13.9993 20.5127C13.7831 20.5127 13.572 20.4488 13.3936 20.3295C10.7484 18.5755 9.60279 17.3711 8.97144 16.621C7.62529 15.0189 6.98048 13.3733 6.99933 11.5917C7.02019 9.54974 8.69683 7.88843 10.7369 7.88843C12.11 7.88843 13.0927 8.58727 13.7052 9.23024C13.7429 9.26923 13.7884 9.30029 13.8389 9.32152C13.8893 9.34275 13.9437 9.3537 13.9987 9.3537C14.0536 9.3537 14.108 9.34275 14.1584 9.32152C14.2089 9.30029 14.2544 9.26923 14.2921 9.23024C14.9053 8.58727 15.8873 7.88843 17.2604 7.88843C19.3005 7.88843 20.9771 9.54974 20.998 11.5917C21.0182 13.3733 20.3727 15.0189 19.0272 16.621Z" fill="#4C4C4C"/>
</svg>
