<svg width="134" height="134" viewBox="0 0 134 134" fill="none" xmlns="http://www.w3.org/2000/svg">
<path d="M46.9999 133.667C42.9999 133.667 40.3333 131 40.3333 127V107H13.6666C6.33325 107 0.333252 101 0.333252 93.6667V13.6667C0.333252 6.33337 6.33325 0.333374 13.6666 0.333374H120.333C127.667 0.333374 133.667 6.33337 133.667 13.6667V93.6667C133.667 101 127.667 107 120.333 107H79.6666L54.9999 131.667C53.6666 133 52.3333 133.667 50.3333 133.667H46.9999ZM73.6666 60.3334V20.3334H60.3333V60.3334H73.6666ZM73.6666 87V73.6667H60.3333V87H73.6666Z" fill="#4C4C4C"/>
</svg>
