<svg width="32" height="32" viewBox="0 0 32 32" fill="none" xmlns="http://www.w3.org/2000/svg">
<path d="M22.7677 13.863C23.4685 13.865 24.1628 13.7278 24.8103 13.4596C25.4578 13.1914 26.0456 12.7973 26.5398 12.3003L31.6732 7.1702C32.0792 6.76419 32.1166 6.10351 31.7299 5.6775C31.6328 5.57047 31.515 5.48427 31.3836 5.42415C31.2522 5.36402 31.11 5.33122 30.9655 5.32773C30.8211 5.32424 30.6774 5.35013 30.5433 5.40384C30.4091 5.45755 30.2873 5.53795 30.1852 5.64016L25.6097 10.2123C25.4561 10.3657 25.2478 10.4519 25.0307 10.4519C24.8136 10.4519 24.6053 10.3657 24.4517 10.2123C24.1324 9.89361 24.1497 9.35492 24.4684 9.03625L29.0238 4.4808C29.1259 4.37868 29.2062 4.25689 29.2599 4.12281C29.3135 3.98873 29.3394 3.84515 29.3359 3.70078C29.3324 3.55641 29.2996 3.41425 29.2396 3.28292C29.1795 3.15159 29.0934 3.03382 28.9865 2.93676C28.7934 2.76166 28.5418 2.66532 28.2811 2.66675C27.9858 2.66695 27.7025 2.78446 27.4938 2.99343L22.9423 7.54421C22.7887 7.69765 22.5804 7.78384 22.3633 7.78384C22.1462 7.78384 21.9379 7.69765 21.7843 7.54421C21.4656 7.22554 21.4823 6.68686 21.801 6.36818L26.3564 1.81406C26.4585 1.71194 26.5388 1.59015 26.5925 1.45607C26.6461 1.32199 26.672 1.17842 26.6685 1.03405C26.665 0.889674 26.6322 0.747516 26.5722 0.616186C26.5121 0.484855 26.426 0.367088 26.3191 0.270023C26.126 0.094926 25.8744 -0.00141841 25.6137 1.57848e-05C25.3184 0.000365416 25.0352 0.117847 24.8264 0.326691L19.6962 5.45682C19.1992 5.95108 18.8051 6.53904 18.5369 7.18664C18.2687 7.83424 18.1316 8.52863 18.1335 9.22959V9.77827C18.1336 9.91855 18.1061 10.0575 18.0524 10.1871C17.9988 10.3167 17.9201 10.4345 17.8209 10.5336L15.4468 12.9083C15.422 12.9331 15.3926 12.9528 15.3603 12.9662C15.3279 12.9797 15.2932 12.9866 15.2581 12.9866C15.2231 12.9866 15.1884 12.9797 15.156 12.9662C15.1236 12.9528 15.0942 12.9331 15.0695 12.9083L3.51717 1.35538C3.31779 1.15577 3.04744 1.04328 2.76531 1.04253C2.48318 1.04178 2.21224 1.15284 2.0118 1.35138C1.00177 2.35208 0.462425 3.76478 0.462425 5.43616C0.455758 8.19623 1.90646 11.3696 4.24852 13.7084L9.94533 19.4052C10.755 20.2132 11.8522 20.6671 12.9961 20.6672C13.3608 20.6674 13.7239 20.6208 14.0768 20.5285C14.1654 20.5053 14.2565 20.4935 14.3481 20.4932C14.6159 20.4933 14.8738 20.5945 15.0701 20.7766L15.8295 21.4779C16.0253 21.678 16.1354 21.9466 16.1362 22.2266V22.5959C16.1342 23.4356 16.4642 24.2419 17.0542 24.8393L23.0577 30.9441L23.0637 30.9508C23.73 31.6171 24.6337 31.9913 25.576 31.9913C26.5182 31.9912 27.4219 31.6168 28.0881 30.9505C28.7544 30.2842 29.1286 29.3805 29.1286 28.4382C29.1285 27.4959 28.7541 26.5923 28.0878 25.926L19.0889 16.9271C19.0641 16.9024 19.0444 16.8729 19.031 16.8406C19.0176 16.8082 19.0107 16.7735 19.0107 16.7384C19.0107 16.7034 19.0176 16.6687 19.031 16.6363C19.0444 16.604 19.0641 16.5745 19.0889 16.5498L21.463 14.1757C21.562 14.0766 21.6797 13.9979 21.8092 13.9443C21.9387 13.8906 22.0775 13.863 22.2176 13.863H22.7677Z" fill="#4C4C4C"/>
<path d="M12.9957 22.8006C11.2878 22.797 9.65028 22.1203 8.43821 20.9172L7.51419 19.9932C7.41421 19.8934 7.27874 19.8374 7.13751 19.8374C6.99628 19.8374 6.86082 19.8934 6.76084 19.9932L1.09403 25.6306C0.0840013 26.6407 -0.276675 28.1274 0.223338 29.5834C0.251323 29.6654 0.284502 29.7456 0.322674 29.8234C0.995358 31.2008 2.30072 32.0008 3.72876 32.0008C4.21986 32.002 4.70632 31.9058 5.15996 31.7176C5.6136 31.5295 6.02539 31.2532 6.37149 30.9048L13.929 23.3112C13.9608 23.2788 13.9852 23.2398 14.0004 23.1969C14.0156 23.1541 14.0213 23.1085 14.017 23.0632V23.0459C14.0141 23.0043 14.0027 22.9638 13.9837 22.9267C13.9646 22.8897 13.9382 22.8568 13.9061 22.8302C13.8741 22.8036 13.8369 22.7838 13.797 22.772C13.757 22.7601 13.7151 22.7564 13.6737 22.7612C13.4485 22.7862 13.2222 22.7993 12.9957 22.8006Z" fill="#4C4C4C"/>
</svg>
