<svg width="36" height="31" viewBox="0 0 36 31" fill="none" xmlns="http://www.w3.org/2000/svg">
<path fill-rule="evenodd" clip-rule="evenodd" d="M4.344 4.01958C5.84422 2.51981 7.87869 1.67728 10 1.67728C12.1213 1.67728 14.1558 2.51981 15.656 4.01958L18 6.36158L20.344 4.01958C21.082 3.25549 21.9647 2.64604 22.9408 2.22676C23.9168 1.80749 24.9665 1.5868 26.0288 1.57757C27.091 1.56834 28.1445 1.77076 29.1276 2.173C30.1108 2.57525 31.004 3.16927 31.7552 3.92042C32.5063 4.67156 33.1003 5.56477 33.5026 6.54794C33.9048 7.53111 34.1072 8.58455 34.098 9.64679C34.0888 10.709 33.8681 11.7588 33.4488 12.7348C33.0295 13.7108 32.4201 14.5936 31.656 15.3316L18 28.9896L4.344 15.3316C2.84423 13.8314 2.00171 11.7969 2.00171 9.67558C2.00171 7.55426 2.84423 5.5198 4.344 4.01958V4.01958Z" stroke="#9C9C9C" stroke-width="2.8" stroke-linejoin="round"/>
</svg>
