<svg width="18" height="26" viewBox="0 0 18 26" fill="none" xmlns="http://www.w3.org/2000/svg">
<path d="M16.5566 9.80052C15.8791 8.0018 14.8913 6.33592 13.638 4.87865C11.4691 2.36794 8.61711 0.74646 6.37219 0.74646C6.23871 0.74656 6.10701 0.777198 5.98719 0.836031C5.86737 0.894864 5.7626 0.980332 5.68089 1.08589C5.59919 1.19145 5.54272 1.31431 5.51581 1.44505C5.4889 1.57579 5.49226 1.71096 5.52563 1.84021C6.28414 4.73865 4.71188 7.14873 3.04774 9.6999C1.66907 11.813 0.247192 13.9956 0.247192 16.4965C0.247192 21.321 4.17266 25.2465 8.99719 25.2465C13.8217 25.2465 17.7472 21.321 17.7472 16.4965C17.7472 14.1285 17.3469 11.8759 16.5566 9.80052ZM10.7652 21.8936C10.2003 22.4951 9.49211 22.6215 8.99719 22.6215C8.50227 22.6215 7.79406 22.4951 7.22914 21.8936C6.66422 21.292 6.37219 20.3377 6.37219 19.1215C6.37219 17.7466 6.85453 16.6999 7.32047 15.6882C7.59117 15.1008 7.86735 14.5031 8.03141 13.8633C8.04883 13.7937 8.0831 13.7294 8.1312 13.6762C8.1793 13.6229 8.23975 13.5824 8.30723 13.558C8.37471 13.5336 8.44715 13.5262 8.51816 13.5364C8.58918 13.5467 8.65659 13.5742 8.71446 13.6166C9.21463 14.0036 9.65938 14.4574 10.0363 14.9652C11.0299 16.2777 11.6222 17.8319 11.6222 19.1215C11.6222 20.3377 11.3258 21.2964 10.7652 21.8936Z" fill="#E54444"/>
</svg>
