<svg width="158" height="44" viewBox="0 0 158 44" fill="none" xmlns="http://www.w3.org/2000/svg">
<path d="M115 37.5839C115 32.6678 119.107 28.6825 127.5 28.6825C135.893 28.6825 140 32.6678 140 37.5839C140 38.366 139.429 39 138.725 39H116.275C115.571 39 115 38.366 115 37.5839Z" stroke="#F0F0F0" stroke-opacity="0.8" stroke-width="2"/>
<path d="M132.188 19.6875C132.188 22.2763 130.089 24.375 127.5 24.375C124.911 24.375 122.812 22.2763 122.812 19.6875C122.812 17.0987 124.911 15 127.5 15C130.089 15 132.188 17.0987 132.188 19.6875Z" stroke="#F0F0F0" stroke-opacity="0.8" stroke-width="2"/>
<circle cx="146" cy="12" r="11.25" fill="#E54444" stroke="#F0F0F0" stroke-width="1.5"/>
<path d="M147.062 18H145.641V8.15625H145.578L142.828 9.98438V8.5625L145.641 6.6875H147.062V18Z" fill="#F0F0F0"/>
<path d="M25.5518 30.5391H18.1865V20.2998H25.5518V30.5391ZM19.8125 29.1943H23.8906V21.6182H19.8125V29.1943ZM29.8496 34.4854H28.1885V18.7354H29.8496V34.4854ZM32.3896 26.3291H29.4717V24.9053H32.3896V26.3291ZM46.1885 34.5293H44.5098V18.7354H46.1885V34.5293ZM37.751 19.9219C38.5361 19.9219 39.2363 20.1475 39.8516 20.5986C40.4668 21.0498 40.9473 21.6943 41.293 22.5322C41.6387 23.3701 41.8115 24.3428 41.8115 25.4502C41.8115 26.5635 41.6387 27.5391 41.293 28.377C40.9473 29.209 40.4668 29.8506 39.8516 30.3018C39.2363 30.7529 38.5361 30.9785 37.751 30.9785C36.9658 30.9785 36.2627 30.7529 35.6416 30.3018C35.0264 29.8506 34.5459 29.209 34.2002 28.377C33.8545 27.5391 33.6816 26.5635 33.6816 25.4502C33.6816 24.3428 33.8545 23.3701 34.2002 22.5322C34.5459 21.6943 35.0264 21.0498 35.6416 20.5986C36.2627 20.1475 36.9658 19.9219 37.751 19.9219ZM37.751 21.416C37.2705 21.416 36.8428 21.5801 36.4678 21.9082C36.0928 22.2363 35.8027 22.7051 35.5977 23.3145C35.3926 23.9238 35.293 24.6357 35.2988 25.4502C35.293 26.2705 35.3926 26.9854 35.5977 27.5947C35.8027 28.1982 36.0928 28.6641 36.4678 28.9922C36.8428 29.3145 37.2705 29.4756 37.751 29.4756C38.2314 29.4756 38.6562 29.3145 39.0254 28.9922C39.4004 28.6641 39.6904 28.1982 39.8955 27.5947C40.1006 26.9854 40.2031 26.2705 40.2031 25.4502C40.2031 24.6357 40.1006 23.9238 39.8955 23.3145C39.6904 22.7051 39.4004 22.2363 39.0254 21.9082C38.6562 21.5801 38.2314 21.416 37.751 21.416ZM66.7109 34.4854H65.1113V18.7354H66.7109V34.4854ZM62.5273 26.1357H60.04V24.6416H62.5273V26.1357ZM63.5996 33.6855H62.0176V19.0957H63.5996V33.6855ZM60.4707 22.04H53.2373V20.6777H60.4707V22.04ZM52.9121 29.291C54.3359 29.291 55.7363 29.2676 57.1133 29.2207C58.4902 29.1738 59.7178 29.0742 60.7959 28.9219L60.9014 30.1348C59.7881 30.3574 58.543 30.5068 57.166 30.583C55.7891 30.6592 54.4385 30.6943 53.1143 30.6885L52.9121 29.291ZM55.9707 29.6953H54.459V21.5391H55.9707V29.6953ZM59.249 29.6953H57.7109V21.5391H59.249V29.6953ZM81.6963 34.5293H80.0176V18.7354H81.6963V34.5293ZM73.2588 19.9219C74.0439 19.9219 74.7441 20.1475 75.3594 20.5986C75.9746 21.0498 76.4551 21.6943 76.8008 22.5322C77.1465 23.3701 77.3193 24.3428 77.3193 25.4502C77.3193 26.5635 77.1465 27.5391 76.8008 28.377C76.4551 29.209 75.9746 29.8506 75.3594 30.3018C74.7441 30.7529 74.0439 30.9785 73.2588 30.9785C72.4736 30.9785 71.7705 30.7529 71.1494 30.3018C70.5342 29.8506 70.0537 29.209 69.708 28.377C69.3623 27.5391 69.1895 26.5635 69.1895 25.4502C69.1895 24.3428 69.3623 23.3701 69.708 22.5322C70.0537 21.6943 70.5342 21.0498 71.1494 20.5986C71.7705 20.1475 72.4736 19.9219 73.2588 19.9219ZM73.2588 21.416C72.7783 21.416 72.3506 21.5801 71.9756 21.9082C71.6006 22.2363 71.3105 22.7051 71.1055 23.3145C70.9004 23.9238 70.8008 24.6357 70.8066 25.4502C70.8008 26.2705 70.9004 26.9854 71.1055 27.5947C71.3105 28.1982 71.6006 28.6641 71.9756 28.9922C72.3506 29.3145 72.7783 29.4756 73.2588 29.4756C73.7393 29.4756 74.1641 29.3145 74.5332 28.9922C74.9082 28.6641 75.1982 28.1982 75.4033 27.5947C75.6084 26.9854 75.7109 26.2705 75.7109 25.4502C75.7109 24.6357 75.6084 23.9238 75.4033 23.3145C75.1982 22.7051 74.9082 22.2363 74.5332 21.9082C74.1641 21.5801 73.7393 21.416 73.2588 21.416ZM89.6768 23.3848C89.6709 24.5273 89.4717 25.6377 89.0791 26.7158C88.6924 27.7939 88.1533 28.752 87.4619 29.5898C86.7764 30.4277 86.0029 31.0576 85.1416 31.4795L84.1572 30.1699C84.9424 29.8008 85.6484 29.2529 86.2754 28.5264C86.9082 27.7998 87.4033 26.9883 87.7607 26.0918C88.124 25.1895 88.3057 24.2871 88.3057 23.3848V21.0469H89.6768V23.3848ZM89.9932 23.3848C89.9932 24.2578 90.1719 25.1221 90.5293 25.9775C90.8926 26.8271 91.3877 27.5889 92.0146 28.2627C92.6475 28.9307 93.3623 29.4346 94.1592 29.7744L93.2363 31.084C92.3398 30.6914 91.5459 30.1025 90.8545 29.3174C90.1631 28.5264 89.624 27.6182 89.2373 26.5928C88.8506 25.5674 88.6602 24.498 88.666 23.3848V21.0469H89.9932V23.3848ZM93.5967 21.7061H84.7109V20.335H93.5967V21.7061ZM97.2529 34.4854H95.5742V18.7354H97.2529V34.4854Z" fill="#F0F0F0" fill-opacity="0.8"/>
</svg>
