<svg width="20" height="20" viewBox="0 0 20 20" fill="none" xmlns="http://www.w3.org/2000/svg">
<path d="M15.5626 19.0735C15.4005 19.0734 15.2408 19.034 15.0973 18.9587L10.0001 16.2791L4.90296 18.9587C4.73778 19.0456 4.55161 19.0844 4.3655 19.071C4.17938 19.0575 4.00074 18.9923 3.84977 18.8826C3.6988 18.7729 3.58152 18.6232 3.51119 18.4504C3.44086 18.2775 3.42028 18.0885 3.45178 17.9045L4.42542 12.2288L0.301885 8.20976C0.168302 8.07948 0.0738231 7.91442 0.0291246 7.73326C-0.0155739 7.5521 -0.00870976 7.36204 0.0489412 7.18457C0.106592 7.00711 0.212732 6.8493 0.355365 6.72899C0.497998 6.60868 0.671438 6.53067 0.856085 6.50376L6.55482 5.67563L9.10312 0.51197C9.19523 0.356022 9.3264 0.226782 9.4837 0.137001C9.64099 0.0472202 9.81898 0 10.0001 0C10.1812 0 10.3592 0.0472202 10.5165 0.137001C10.6738 0.226782 10.805 0.356022 10.8971 0.51197L13.4454 5.67554L19.1441 6.50367C19.3288 6.53058 19.5022 6.60859 19.6449 6.7289C19.7875 6.84921 19.8936 7.00702 19.9513 7.18448C20.0089 7.36195 20.0158 7.55201 19.9711 7.73317C19.9264 7.91433 19.8319 8.07939 19.6983 8.20967L15.5748 12.2287L16.5484 17.9044C16.573 18.048 16.566 18.1952 16.5278 18.3357C16.4896 18.4763 16.4212 18.6068 16.3273 18.7181C16.2334 18.8295 16.1163 18.919 15.9842 18.9803C15.8521 19.0417 15.7082 19.0735 15.5626 19.0735L15.5626 19.0735Z" fill="#E54444"/>
</svg>
