<svg width="168" height="37" viewBox="0 0 168 37" fill="none" xmlns="http://www.w3.org/2000/svg">
<g clip-path="url(#clip0_504_469)">
<path d="M46.4279 20.7457C44.3656 18.6373 41.3404 17.3778 38.335 17.3778C32.8965 17.3778 27.7881 22.57 27.619 28.2718C27.5889 29.284 27.7128 30.2881 27.9758 31.2543C21.9395 31.0726 16.1128 29.2046 11.8063 26.0679C11.8456 25.0212 11.7356 23.8939 11.4691 22.7023C10.906 20.1855 9.69758 17.6101 8.06625 15.45L4.82909 17.8609C7.40121 21.2667 8.50653 25.8792 7.24132 27.9336C5.52194 30.7275 3.01702 32.4966 0 33.0487L0.73456 36.9998C4.81403 36.2522 8.32115 33.8171 10.6256 30.1375C15.6262 33.3719 22.0692 35.2307 28.6397 35.286C28.744 35.286 28.8471 35.2871 28.9525 35.2871C36.3885 35.2871 43.456 33.0418 48.7764 28.9481C48.8969 28.3672 48.9803 27.7139 48.9977 27.1181C49.0684 24.7405 48.1809 22.5366 46.429 20.7457H46.4279ZM31.016 28.3718C31.1307 24.5265 34.756 20.7526 38.335 20.7526C40.4089 20.7526 42.5755 21.6509 43.989 23.0956C44.6448 23.7662 45.3979 24.8291 45.5647 26.2692C44.1211 27.2998 42.5431 28.1832 40.8608 28.9055C40.1308 27.2526 39.4994 25.4053 39.2364 24.5519L36.1406 25.4928C36.2483 25.8413 36.9029 27.929 37.8113 30.0075C35.8092 30.6033 33.6994 30.9944 31.5247 31.1669C31.1643 30.2847 30.9871 29.3323 31.016 28.3707V28.3718Z" fill="#FCFCFC"/>
<path d="M18.7742 19.622C18.4706 13.6039 20.9987 9.18808 22.8038 8.09765C22.9938 7.98378 23.3391 7.80664 23.5233 7.91361C24.1154 8.25638 25.1894 10.4798 25.0202 15.84L29.7694 15.8009V15.6571H29.774C29.5979 9.63438 32.2199 5.27264 34.047 4.22017C34.2393 4.10974 34.5881 3.94066 34.7711 4.05108C35.3551 4.40536 36.3851 6.49191 36.1024 11.8463L40.1436 12.0568C40.4645 5.97889 39.3673 2.13247 36.8833 0.623345C35.4431 -0.250843 33.6704 -0.207134 32.0183 0.744121C30.3336 1.71378 28.6676 3.70486 27.473 6.40449C26.9586 5.5372 26.3214 4.88041 25.5625 4.44102C24.1049 3.59788 22.3323 3.6784 20.7009 4.66416C17.4545 6.62533 14.3622 12.4617 14.7341 19.821L18.7753 19.6197L18.7742 19.622Z" fill="#FCFCFC"/>
</g>
<path d="M105.94 24.0903H98.4883L96.5357 29L92.1748 27.3809L99.8041 8.80005H104.621L112.25 27.3809L107.916 29L105.94 24.0903ZM102.212 14.7881L99.9309 20.408H104.494L102.212 14.7881Z" fill="#FCFCFC"/>
<path d="M115.651 28.8277V13.1692H110.252V9.24146H125.713V13.1692H120.314V28.8277H115.651Z" fill="#FCFCFC"/>
<path d="M140.597 28.8277L133.55 16.9246V28.8277H128.888V9.24146H133.55L140.649 21.317V9.24146H145.311V28.8277H140.597Z" fill="#FCFCFC"/>
<path d="M161.69 24.0903H154.238L152.286 29L147.925 27.3809L155.554 8.80005H160.371L168 27.3809L163.666 29L161.69 24.0903ZM157.962 14.7881L155.681 20.408H160.244L157.962 14.7881Z" fill="#FCFCFC"/>
<path d="M83.5101 8.00518C81.9861 7.94381 80.628 8.42893 79.5747 9.41087C79.3997 9.57453 79.2367 9.74695 79.0798 9.93107C78.0899 8.72118 76.7499 8.07239 75.0599 8.00518C73.5389 7.94381 72.1778 8.42893 71.1245 9.41087C68.2786 12.0586 67.9799 17.6142 68.001 28.7954L72.8297 28.7867C72.8176 23.0324 72.7995 14.3381 74.4684 12.7834C74.5348 12.722 74.5921 12.6665 74.8577 12.6782C76.5176 12.7454 76.4783 19.429 76.4421 25.3265C76.4361 26.4575 76.427 27.6411 76.427 28.8714H81.2557C81.2557 28.8422 81.2557 28.813 81.2557 28.7837H81.2799C81.2678 23.0295 81.2497 14.3352 82.9186 12.7804C82.985 12.7191 83.0423 12.6635 83.3079 12.6752C84.9678 12.7425 84.9285 19.4261 84.8923 25.3236C84.8863 26.4546 84.8772 27.6381 84.8772 28.8685H89.7059C89.7059 27.6469 89.712 26.4721 89.721 25.3499C89.7512 20.6184 89.7723 16.8806 89.2502 14.0751C88.5229 10.1736 86.5914 8.12792 83.5101 8.00518Z" fill="#FCFCFC"/>
<defs>
<clipPath id="clip0_504_469">
<rect width="49" height="37" fill="white"/>
</clipPath>
</defs>
</svg>
