<svg width="57" height="65" viewBox="0 0 57 65" fill="none" xmlns="http://www.w3.org/2000/svg">
<path d="M12.4781 62.4141H10.7516V48.2656H12.4781V62.4141ZM2.72812 57.6328C4.04062 57.638 5.23333 57.6068 6.30625 57.5391C7.37917 57.4661 8.48594 57.3359 9.62656 57.1484L9.78281 58.5703C8.6474 58.763 7.53281 58.8958 6.43906 58.9688C5.34531 59.0365 4.10833 59.0703 2.72812 59.0703H1.49375V57.6328H2.72812ZM8.13437 54.7891H3.28281V58.1719H1.49375V53.4141H6.36875V50.9062H1.47812V49.4922H8.13437V54.7891ZM19.7219 62.375H17.9484V56.5859H19.7219V62.375ZM24.7922 62.375H23.0656V56.5859H24.7922V62.375ZM27.8391 57.7578H14.9328V56.3438H27.8391V57.7578ZM18.1984 50.5H24.5187V48.8125H26.2609V54.8984H16.4875V48.8125H18.1984V50.5ZM24.5187 53.5V51.875H18.1984V53.5H24.5187ZM33.2469 51.0078C33.2469 51.7891 33.1323 52.5443 32.9031 53.2734C32.674 54.0026 32.3198 54.6562 31.8406 55.2344C31.3615 55.8073 30.7729 56.25 30.075 56.5625L29.1766 55.2656C29.7703 55.0052 30.2729 54.6458 30.6844 54.1875C31.101 53.724 31.4109 53.2188 31.6141 52.6719C31.8172 52.125 31.9187 51.5703 31.9187 51.0078V49.3281H33.2469V51.0078ZM33.6531 51.0078C33.6531 51.5651 33.7495 52.1224 33.9422 52.6797C34.1349 53.237 34.4344 53.7526 34.8406 54.2266C35.2469 54.7005 35.7547 55.0729 36.3641 55.3438L35.6062 56.75C34.851 56.4375 34.2286 55.9766 33.7391 55.3672C33.2495 54.7526 32.8901 54.0703 32.6609 53.3203C32.4318 52.5651 32.3198 51.7943 32.325 51.0078V49.3281H33.6531V51.0078ZM38.8641 51.0078C38.8589 51.8151 38.7443 52.5938 38.5203 53.3438C38.2964 54.0938 37.9396 54.7708 37.45 55.375C36.9604 55.974 36.3458 56.4323 35.6062 56.75L34.8406 55.3438C35.45 55.0781 35.9578 54.7109 36.3641 54.2422C36.7755 53.7734 37.075 53.2604 37.2625 52.7031C37.45 52.1406 37.5464 51.5755 37.5516 51.0078V49.3281H38.8641V51.0078ZM39.3016 51.0078C39.2964 51.6068 39.3901 52.1797 39.5828 52.7266C39.7807 53.2734 40.0854 53.7708 40.4969 54.2188C40.9083 54.6615 41.424 55.0104 42.0437 55.2656L41.1062 56.5625C40.3979 56.2604 39.8068 55.8281 39.3328 55.2656C38.8641 54.6979 38.5151 54.0521 38.2859 53.3281C38.062 52.6042 37.9526 51.8307 37.9578 51.0078V49.3281H39.3016V51.0078ZM42.0516 60.5781H29.1766V59.1641H42.0516V60.5781ZM55.1937 62.375H53.4359V48.2656H55.1937V62.375ZM50.9828 49.7656C50.9776 51.2396 50.7641 52.5911 50.3422 53.8203C49.9203 55.0443 49.2224 56.1719 48.2484 57.2031C47.2797 58.2344 45.9984 59.1276 44.4047 59.8828L43.4828 58.4922C44.8422 57.8464 45.9464 57.112 46.7953 56.2891C47.6443 55.4609 48.2667 54.5365 48.6625 53.5156C49.0583 52.4948 49.2562 51.3438 49.2562 50.0625V49.7656H50.9828ZM50.0375 51.1406H44.2016V49.7656H50.0375V51.1406Z" fill="#9C9C9C"/>
<path d="M22.8261 29.7738L38.8265 13.7734L31.2266 6.17352L15.2262 22.1739C15.006 22.3944 14.8495 22.6705 14.7734 22.9728L13 32L22.0255 30.2266C22.3285 30.1508 22.6057 29.9941 22.8261 29.7738ZM43.9918 8.60809C44.6373 7.96234 45 7.08662 45 6.17352C45 5.26042 44.6373 4.3847 43.9918 3.73894L41.2611 1.00822C40.6153 0.362657 39.7396 0 38.8265 0C37.9134 0 37.0377 0.362657 36.3919 1.00822L33.6612 3.73894L41.2611 11.3388L43.9918 8.60809Z" fill="#9C9C9C"/>
</svg>
