<svg width="19" height="23" viewBox="0 0 30 23" fill="none" xmlns="http://www.w3.org/2000/svg">
<path d="M14.135 0C14.2388 1.3353 13.8101 2.65787 12.9397 3.68683C12.523 4.19732 11.9941 4.60803 11.3928 4.88801C10.7915 5.168 10.1336 5.30997 9.4685 5.30323C9.42607 4.6611 9.51255 4.01703 9.72302 3.40784C9.93348 2.79865 10.2638 2.23628 10.6951 1.75289C11.5771 0.763404 12.8054 0.137539 14.135 0Z" fill="#F9F9F9"/>
<path d="M16.5604 9.71862C16.1186 10.4854 15.8808 11.3498 15.8693 12.2313C15.8704 13.223 16.1678 14.1924 16.7245 15.0187C17.2813 15.8449 18.0726 16.4915 19 16.8778C18.6354 18.0443 18.0858 19.1467 17.3716 20.1441C16.4124 21.5572 15.4067 22.9378 13.8105 22.9633C13.0514 22.9806 12.5389 22.7656 12.0049 22.5415C11.448 22.3079 10.8676 22.0644 9.95935 22.0644C8.99615 22.0644 8.38976 22.3157 7.80493 22.5581C7.29954 22.7676 6.81023 22.9704 6.12065 22.9986C4.60051 23.054 3.43876 21.4904 2.44471 20.0905C0.457905 17.2317 -1.08916 12.0341 0.984898 8.49745C1.46371 7.65006 2.15723 6.93928 2.9979 6.43435C3.83856 5.92942 4.7977 5.64757 5.78185 5.61625C6.64401 5.59878 7.47132 5.92605 8.19663 6.21298C8.75133 6.43241 9.24638 6.62825 9.65177 6.62825C10.0081 6.62825 10.4894 6.44015 11.0502 6.22092C11.9337 5.8756 13.0147 5.45306 14.1163 5.56694C14.9605 5.59295 15.7869 5.81248 16.53 6.20809C17.273 6.60369 17.9121 7.16447 18.3966 7.8459C17.6339 8.30764 17.0023 8.95187 16.5604 9.71862Z" fill="#F9F9F9"/>
</svg>
