
<svg width="26" height="19" viewBox="0 0 26 19" fill="none" xmlns="http://www.w3.org/2000/svg">
<g clip-path="url(#clip0_579_1078)">
<path d="M24.6352 10.6535C23.5409 9.57082 21.9357 8.92404 20.341 8.92404C17.4553 8.92404 14.7447 11.5903 14.655 14.5182C14.639 15.038 14.7048 15.5537 14.8443 16.0499C11.6414 15.9565 8.54965 14.9973 6.26454 13.3865C6.28544 12.849 6.22704 12.2702 6.08564 11.6582C5.78686 10.3659 5.14565 9.04336 4.28005 7.93408L2.56238 9.17212C3.92717 10.9211 4.51367 13.2897 3.84233 14.3446C2.93001 15.7793 1.60087 16.6878 0 16.9713L0.389766 19.0002C2.55438 18.6163 4.4153 17.3659 5.63809 15.4763C8.29145 17.1373 11.7102 18.0918 15.1966 18.1201C15.2519 18.1201 15.3066 18.1207 15.3626 18.1207C19.3082 18.1207 23.0583 16.9677 25.8813 14.8656C25.9453 14.5673 25.9895 14.2318 25.9988 13.9258C26.0363 12.7049 25.5654 11.5732 24.6358 10.6535H24.6352ZM16.4575 14.5696C16.5183 12.595 18.442 10.6571 20.341 10.6571C21.4415 10.6571 22.5911 11.1184 23.3411 11.8602C23.6891 12.2046 24.0887 12.7504 24.1772 13.4899C23.4112 14.0191 22.5739 14.4728 21.6812 14.8437C21.2939 13.9949 20.9589 13.0463 20.8193 12.608L19.1766 13.0912C19.2338 13.2702 19.5812 14.3422 20.0631 15.4096C19.0008 15.7155 17.8813 15.9164 16.7274 16.005C16.5362 15.5519 16.4421 15.0628 16.4575 14.569V14.5696Z" fill="#F9F9F9"/>
<path d="M9.96189 10.0763C9.80082 6.98593 11.1423 4.71836 12.1001 4.1584C12.2009 4.09993 12.3841 4.00897 12.4818 4.0639C12.796 4.23992 13.3659 5.38168 13.2761 8.13419L15.7961 8.1141V8.04027H15.7985C15.7051 4.94754 17.0963 2.70773 18.0658 2.16726C18.1679 2.11056 18.3529 2.02373 18.4501 2.08044C18.7599 2.26236 19.3064 3.33383 19.1564 6.08339L21.3008 6.19148C21.4711 3.0704 20.8889 1.0952 19.5708 0.320248C18.8066 -0.128659 17.866 -0.106214 16.9894 0.382268C16.0955 0.880201 15.2114 1.90265 14.5776 3.28894C14.3046 2.84358 13.9665 2.50631 13.5638 2.28067C12.7905 1.84771 11.8499 1.88906 10.9843 2.39526C9.26166 3.40235 7.62083 6.3994 7.81817 10.1785L9.9625 10.0751L9.96189 10.0763Z" fill="#F9F9F9"/>
</g>
<defs>
<clipPath id="clip0_579_1078">
<rect width="26" height="19" fill="white"/>
</clipPath>
</defs>
</svg>
